# xmcd
#
# Track frame offsets:
#	150
#	19004
#	36835
#	55887
#	77061
#	98256
#	112299
#	130322
#	149112
#	166814
#	183821
#	202486
#	219378
#	239904
#	258528
#	277100
#	295090
#	309475
#	327126
#
# Disc length: 4589 seconds
#
# Revision: 0
# Processed by: cddbd v1.5.2PL0 Copyright (c) Steve Scherf et al.
# Submitted via: audiograbber 1.83.01
#
DISCID=2711eb13
DTITLE=Various Artist - Urban Grooves - The Best Of R&B [CD 1 of 2) (2000)
DYEAR=2000
DGENRE=R&B
TTITLE0=Monica - Angel Of Mine
TTITLE1=All Saints - I Know Where It's At
TTITLE2=Allure - Head Over Heels
TTITLE3=En Vogue - My Lovin' (You're Never Gonna Get It)
TTITLE4=Nas - If I Ruled The World
TTITLE5=Lutricia McNeal - Ain't That Just The Way
TTITLE6=Missy Elliot - The Rain (Supa Dupa Fly)
TTITLE7=Dru Hill - Tell Me
TTITLE8=Boyz II Men - Motownphilly
TTITLE9=SWV -  I'm So Into You
TTITLE10=Another Level - Be Alone, No More
TTITLE11=Brownstone - 5 Miles To Empty
TTITLE12=Karyn White - The Way I Feel About You
TTITLE13=R. Kelly - Bump 'N' Grind
TTITLE14=Warren G feat Nate Dogg - Regulate
TTITLE15=Aaron Hall - All The Places I Will Kiss You
TTITLE16=Sweetbox - Everything's Gonna Be Alright
TTITLE17=Finley Quaye - Even After All
TTITLE18=Erykah Badu - On and On
EXTD=STELCD0153
EXTT0=
EXTT1=
EXTT2=
EXTT3=
EXTT4=
EXTT5=
EXTT6=
EXTT7=
EXTT8=
EXTT9=
EXTT10=
EXTT11=
EXTT12=
EXTT13=
EXTT14=
EXTT15=
EXTT16=
EXTT17=
EXTT18=
PLAYORDER=
